<?xml version="1.0" encoding="UTF-8"?>
<svg xmlns="http://www.w3.org/2000/svg" xmlns:xlink="http://www.w3.org/1999/xlink" width="500pt" height="500pt" viewBox="0 0 500 500" version="1.1">
<g id="surface1">
<path style="fill:none;stroke-width:0.01;stroke-linecap:butt;stroke-linejoin:miter;stroke:rgb(0%,0%,0%);stroke-opacity:1;stroke-miterlimit:10;" d="M 0 0 C 0 0 0.5 1 1 0 " transform="matrix(500,0,0,500,0,0)"/>
<path style="fill:none;stroke-width:0.01;stroke-linecap:butt;stroke-linejoin:miter;stroke:rgb(0%,0%,0%);stroke-opacity:1;stroke-miterlimit:10;" d="M 0 1 C 0 1 0.5 0 1 1 " transform="matrix(500,0,0,500,0,0)"/>
<path style="fill:none;stroke-width:0.01;stroke-linecap:butt;stroke-linejoin:miter;stroke:rgb(0%,0%,0%);stroke-opacity:1;stroke-miterlimit:10;" d="M 0 0 C 0 0 1 0.5 0 1 " transform="matrix(500,0,0,500,0,0)"/>
<path style="fill:none;stroke-width:0.01;stroke-linecap:butt;stroke-linejoin:miter;stroke:rgb(0%,0%,0%);stroke-opacity:1;stroke-miterlimit:10;" d="M 1 0 C 1 0 0 0.5 1 1 " transform="matrix(500,0,0,500,0,0)"/>
<path style="fill:none;stroke-width:0.01;stroke-linecap:butt;stroke-linejoin:miter;stroke:rgb(50%,30%,100%);stroke-opacity:1;stroke-miterlimit:10;" d="M 0 0 L 1 1 " transform="matrix(500,0,0,500,0,0)"/>
<path style="fill:none;stroke-width:0.01;stroke-linecap:butt;stroke-linejoin:miter;stroke:rgb(50%,30%,100%);stroke-opacity:1;stroke-miterlimit:10;" d="M 1 0 L 0 1 " transform="matrix(500,0,0,500,0,0)"/>
</g>
</svg>
